<svg width="120" height="120" viewBox="0 0 120 120" fill="none" xmlns="http://www.w3.org/2000/svg">
<g clip-path="url(#clip0_56_40)">
<path fill-rule="evenodd" clip-rule="evenodd" d="M47.9462 1.17591L43.9379 39.3542L98.7424 14.3759C84.8959 2.57832 66.1375 -2.49638 47.9462 1.17591Z" fill="#00A9E2"/>
<path fill-rule="evenodd" clip-rule="evenodd" d="M40.0785 3.11325C38.4396 3.70602 36.8055 4.33735 35.1714 5.0747C19.2679 12.3229 8.03589 25.7157 2.98462 41.1952L34.364 63.7494L40.0785 3.11325Z" fill="#F55070"/>
<path fill-rule="evenodd" clip-rule="evenodd" d="M15.4614 100.159L50.4406 84.2458L1.05255 48.7566C0.360461 52.4193 0 56.1542 0 59.9229V59.9952C0 68.2795 1.7158 76.6988 5.34925 84.7325C7.98782 90.5157 11.4338 95.6819 15.4614 100.159Z" fill="#E6438F"/>
<path fill-rule="evenodd" clip-rule="evenodd" d="M79.3784 116.79C81.2096 116.149 83.0407 115.441 84.819 114.631C101.112 107.214 112.488 93.3494 117.352 77.4121L85.7946 55.6675L79.3784 116.79Z" fill="#34D991"/>
<path fill-rule="evenodd" clip-rule="evenodd" d="M71.852 118.824L75.8844 80.6458L21.0798 105.624C34.9023 117.422 53.6559 122.496 71.852 118.824Z" fill="#FFDD36"/>
<path fill-rule="evenodd" clip-rule="evenodd" d="M119.159 69.8458L69.8286 35.8506L104.846 19.8843C108.754 24.294 112.051 29.3398 114.617 34.9687C119.769 46.2843 121.081 58.4096 119.159 69.8458Z" fill="#6D4BDD"/>
<path fill-rule="evenodd" clip-rule="evenodd" d="M37.8196 26.612C4.91192 48.7614 20.7049 100.111 60 100.111C99.2711 100.111 115.112 48.8 82.1852 26.612C68.8722 17.6482 51.1183 17.653 37.8196 26.612Z" fill="#FEFEFE"/>
<path fill-rule="evenodd" clip-rule="evenodd" d="M43.2314 34.7566C18.3548 51.5036 30.298 90.3181 60.0001 90.3181C89.6829 90.3181 101.66 51.5277 76.7687 34.7566C66.7143 27.9807 53.2907 27.9856 43.2314 34.7566Z" fill="#D5D5D7"/>
<path fill-rule="evenodd" clip-rule="evenodd" d="M46.6197 39.8651C26.7751 53.2193 36.3009 84.1928 60 84.1928C83.6847 84.1928 93.2394 53.2482 73.3755 39.8651C65.3493 34.453 54.646 34.4578 46.6197 39.8651Z" fill="#5F5F5F"/>
<path fill-rule="evenodd" clip-rule="evenodd" d="M48.1961 42.2313C30.6825 54.0193 39.0885 81.3446 60 81.3446C80.8972 81.3446 89.3272 54.0386 71.804 42.2313C64.7245 37.4602 55.2756 37.4602 48.1961 42.2313Z" fill="#434443"/>
<path fill-rule="evenodd" clip-rule="evenodd" d="M53.4492 50.1446C43.7359 56.6843 48.3979 71.841 60 71.841C71.5924 71.841 76.2688 56.694 66.546 50.1446C62.6193 47.4988 57.3758 47.4988 53.4492 50.1446Z" fill="#22201E"/>
<path fill-rule="evenodd" clip-rule="evenodd" d="M52.5456 56.0145C47.9557 52.9205 50.1618 45.759 55.6456 45.759C61.1246 45.759 63.3354 52.9157 58.7407 56.0145C56.8808 57.2627 54.4008 57.2627 52.5456 56.0145Z" fill="#BABCBE"/>
<path fill-rule="evenodd" clip-rule="evenodd" d="M65.2867 71.6964C63.0279 70.1783 64.114 66.6506 66.8055 66.6506C69.5017 66.6506 70.5879 70.1735 68.3242 71.6964C67.4207 72.3181 66.1999 72.3181 65.2867 71.6964Z" fill="#FEFEFE"/>
</g>
<defs>
<clipPath id="clip0_56_40">
<rect width="120" height="120" fill="white"/>
</clipPath>
</defs>
</svg>
