<svg width="120" height="120" viewBox="0 0 120 120" fill="none" xmlns="http://www.w3.org/2000/svg">
<rect x="1.5" y="1.5" width="117" height="117" rx="58.5" stroke="#EAEBF0" stroke-width="3"/>
<path d="M82.323 58.3647L66.3413 42.1945L70.5363 37.9396C71.3013 37.1636 71.302 35.9047 70.5377 35.1279C69.7736 34.3511 68.5339 34.3505 67.7687 35.1264L44.1409 59.0917C40.84 60.0268 38.4113 63.1075 38.4113 66.7534C38.4113 67.8515 39.2879 68.7416 40.3693 68.7416C41.4507 68.7416 42.3273 67.8515 42.3273 66.7534C42.3273 65.2104 43.1974 63.8699 44.4654 63.211L61.03 79.9729C62.5567 81.5215 64.5611 82.2955 66.5659 82.2954C68.5709 82.2953 70.5762 81.5206 72.1016 79.9717L82.327 69.6158C83.8066 68.1133 84.6213 66.1157 84.6209 63.9909C84.6205 61.8659 83.8051 59.8686 82.323 58.3647ZM79.5597 66.8021L69.3343 77.1583C67.8083 78.7078 65.3244 78.7084 63.7961 77.1581L49.5844 62.7771H71.3064C72.3878 62.7771 73.2644 61.887 73.2644 60.7889C73.2644 59.6908 72.3878 58.8007 71.3064 58.8007H49.969L63.5707 45.0048L79.5568 61.1796C80.297 61.9305 80.7047 62.9292 80.7049 63.9917C80.705 65.0539 80.2978 66.0527 79.5597 66.8021Z" fill="#EAEBF0"/>
<path d="M43.8185 74.2381C42.8221 72.7276 41.8368 71.5069 41.7953 71.4556C41.4234 70.996 40.8683 70.7297 40.2826 70.7297C39.6968 70.7297 39.1417 70.996 38.7698 71.4556C38.7283 71.5069 37.743 72.7276 36.7466 74.2381C34.7386 77.2825 34.5063 78.7431 34.5063 79.5772C34.5063 82.8112 37.0976 85.4423 40.2826 85.4423C43.4675 85.4423 46.0588 82.8112 46.0588 79.5772C46.0588 78.7431 45.8265 77.2825 43.8185 74.2381ZM40.2826 81.4659C39.2568 81.4659 38.4224 80.6187 38.4223 79.5819C38.4227 79.574 38.4738 78.7599 40.0169 76.4257C40.1057 76.2915 40.1944 76.1596 40.2826 76.0309C40.3706 76.1596 40.4594 76.2915 40.5482 76.4257C42.0645 78.7195 42.1402 79.5452 42.1427 79.5807C42.1407 80.6204 41.307 81.4659 40.2826 81.4659Z" fill="#EAEBF0"/>
</svg>
