<svg width="75" height="63" viewBox="0 0 75 63" fill="none" xmlns="http://www.w3.org/2000/svg">
<path fill-rule="evenodd" clip-rule="evenodd" d="M70.8986 14.8954C73.4715 18.261 75 22.4676 75 27.0312V42.1093C75 53.155 66.0457 62.1093 55 62.1093H20C8.9543 62.1093 0 53.155 0 42.1093V27.0312C0 15.9855 8.95431 7.03121 20 7.03121H52.5742C53.5875 2.99148 57.2428 0 61.5968 0C66.734 0 70.8986 4.16454 70.8986 9.30176V14.8954ZM58.0078 34.7168C58.0078 46.0429 48.8262 55.2246 37.5 55.2246C26.1738 55.2246 16.9922 46.0429 16.9922 34.7168C16.9922 23.3906 26.1738 14.209 37.5 14.209C48.8262 14.209 58.0078 23.3906 58.0078 34.7168ZM37.793 24.2432C37.793 27.9242 34.8089 30.9082 31.1279 30.9082C28.2771 30.9082 25.8444 29.1184 24.892 26.6012C23.4145 28.9261 22.5588 31.6849 22.5588 34.6436C22.5588 42.9359 29.281 49.6582 37.5734 49.6582C45.8658 49.6582 52.5881 42.9359 52.5881 34.6436C52.5881 26.3512 45.8658 19.6289 37.5734 19.6289C37.0465 19.6289 36.526 19.6561 36.0131 19.709C37.1176 20.8985 37.793 22.4919 37.793 24.2432Z" fill="#27282F"/>
</svg>
