<svg width="59" height="62" viewBox="0 0 59 62" fill="none" xmlns="http://www.w3.org/2000/svg">
<path d="M47.2266 40.2031C43.6378 40.2031 40.4491 41.9471 38.462 44.6316L21.3551 35.8893C21.6421 34.9142 21.7969 33.8831 21.7969 32.8164C21.7969 31.3716 21.5136 29.992 21.0008 28.7291L38.9299 17.9569C40.9304 20.3049 43.9074 21.7969 47.2266 21.7969C53.236 21.7969 58.125 16.9078 58.125 10.8984C58.125 4.88904 53.236 0 47.2266 0C41.2172 0 36.3281 4.88904 36.3281 10.8984C36.3281 12.2874 36.5898 13.6161 37.0656 14.8388L19.0916 25.638C17.0926 23.3592 14.1608 21.918 10.8984 21.918C4.88904 21.918 0 26.807 0 32.8164C0 38.8258 4.88904 43.7148 10.8984 43.7148C14.546 43.7148 17.7804 41.9135 19.7597 39.1537L36.817 47.8707C36.4994 48.892 36.3281 49.9771 36.3281 51.1016C36.3281 57.111 41.2172 62 47.2266 62C53.236 62 58.125 57.111 58.125 51.1016C58.125 45.0922 53.236 40.2031 47.2266 40.2031ZM47.2266 3.63281C51.2328 3.63281 54.4922 6.89217 54.4922 10.8984C54.4922 14.9047 51.2328 18.1641 47.2266 18.1641C43.2203 18.1641 39.9609 14.9047 39.9609 10.8984C39.9609 6.89217 43.2203 3.63281 47.2266 3.63281ZM10.8984 40.082C6.89217 40.082 3.63281 36.8227 3.63281 32.8164C3.63281 28.8101 6.89217 25.5508 10.8984 25.5508C14.9047 25.5508 18.1641 28.8101 18.1641 32.8164C18.1641 36.8227 14.9047 40.082 10.8984 40.082ZM47.2266 58.3672C43.2203 58.3672 39.9609 55.1078 39.9609 51.1016C39.9609 47.0953 43.2203 43.8359 47.2266 43.8359C51.2328 43.8359 54.4922 47.0953 54.4922 51.1016C54.4922 55.1078 51.2328 58.3672 47.2266 58.3672Z" fill="white"/>
</svg>
