<svg width="120" height="120" viewBox="0 0 120 120" fill="none" xmlns="http://www.w3.org/2000/svg">
<rect x="1.5" y="1.5" width="117" height="117" rx="58.5" stroke="#EAEBF0" stroke-width="3"/>
<path d="M78.9512 51.6039C79.1394 40.7856 70.4129 32 59.7231 32C49.0411 32 40.3067 40.7778 40.4949 51.6039C34.2703 54.7946 30 61.2824 30 68.75C30 79.3645 38.6277 88 49.2326 88C53.1002 88 56.704 86.8505 59.7231 84.8763C62.742 86.8505 66.346 88 70.2136 88C80.8184 88 89.4462 79.3645 89.4462 68.75C89.4462 61.2824 85.1758 54.7946 78.9512 51.6039ZM59.7231 80.4785C56.7455 77.8075 54.7876 74.0207 54.5124 69.7816C57.8615 70.7262 61.4898 70.7528 64.9337 69.7816C64.6585 74.0208 62.7006 77.8077 59.7231 80.4785ZM54.6895 66.1736C55.2855 62.5633 57.1122 59.3633 59.7231 57.0215C62.3338 59.3633 64.1606 62.5633 64.7567 66.1736C61.6011 67.2428 58.0384 67.3083 54.6895 66.1736ZM51.4265 64.627C47.6583 62.2772 44.9505 58.3781 44.199 53.8263C48.2267 52.4617 52.832 52.7509 56.8158 54.9535C54.1608 57.5373 52.2469 60.8794 51.4265 64.627ZM62.6302 54.9535C66.6136 52.7513 71.219 52.4616 75.247 53.8263C74.4956 58.3781 71.7877 62.2773 68.0195 64.627C67.1993 60.8794 65.2854 57.5373 62.6302 54.9535ZM59.7231 35.5C68.0535 35.5 74.8914 42.0128 75.4242 50.2183C70.2132 48.7486 64.4704 49.5194 59.7231 52.6237C54.9837 49.5246 49.2383 48.747 44.0219 50.2183C44.5548 42.0128 51.3927 35.5 59.7231 35.5ZM49.2326 84.5C40.5558 84.5 33.4968 77.4347 33.4968 68.75C33.4968 63.111 36.4735 58.1556 40.936 55.373C42.1803 61.0574 45.9402 65.81 50.9854 68.3962C50.8908 73.833 53.0519 78.8838 56.8158 82.5465C54.5655 83.7907 51.9803 84.5 49.2326 84.5ZM70.2136 84.5C67.4658 84.5 64.8807 83.7907 62.6302 82.5465C66.388 78.8897 68.5554 73.8413 68.4607 68.3962C73.506 65.81 77.2659 61.0574 78.5102 55.373C82.9727 58.1556 85.9493 63.111 85.9493 68.75C85.9493 77.4347 78.8903 84.5 70.2136 84.5Z" fill="#EAEBF0"/>
</svg>
